<?xml version="1.0" encoding="UTF-8"?>
<svg xmlns="http://www.w3.org/2000/svg" xmlns:xlink="http://www.w3.org/1999/xlink" width="32px" height="32px" viewBox="0 0 32 32" version="1.1">
<g id="surface1">
<path style=" stroke:none;fill-rule:nonzero;fill:rgb(28.235294%,71.764706%,45.490196%);fill-opacity:1;" d="M 21.824219 21.132812 C 21.25 21.882812 20.449219 22.453125 19.429688 22.839844 C 18.410156 23.226562 17.25 23.417969 15.953125 23.417969 C 14.617188 23.417969 13.4375 23.117188 12.40625 22.511719 C 11.378906 21.90625 10.585938 21.042969 10.023438 19.917969 C 9.46875 18.789062 9.179688 17.472656 9.160156 15.96875 L 9.160156 14.722656 C 9.160156 12.316406 9.734375 10.441406 10.886719 9.089844 C 12.039062 7.734375 13.648438 7.054688 15.710938 7.054688 C 17.484375 7.054688 18.890625 7.492188 19.933594 8.367188 C 20.976562 9.242188 21.601562 10.503906 21.8125 12.152344 L 19.101562 12.152344 C 18.796875 10.234375 17.683594 9.277344 15.765625 9.277344 C 14.527344 9.277344 13.582031 9.726562 12.933594 10.621094 C 12.292969 11.511719 11.960938 12.820312 11.9375 14.546875 L 11.9375 15.773438 C 11.9375 17.496094 12.296875 18.832031 13.019531 19.789062 C 13.75 20.734375 14.757812 21.210938 16.050781 21.210938 C 17.464844 21.210938 18.472656 20.886719 19.070312 20.246094 L 19.070312 17.128906 L 15.789062 17.128906 L 15.789062 15.03125 L 21.824219 15.03125 Z M 21.824219 21.132812 "/>
<path style="fill:none;stroke-width:5;stroke-linecap:butt;stroke-linejoin:miter;stroke:rgb(97.647059%,65.490196%,47.45098%);stroke-opacity:1;stroke-miterlimit:4;" d="M 37.5 20 C 37.5 29.663086 29.663086 37.5 20 37.5 C 10.336914 37.5 2.5 29.663086 2.5 20 C 2.5 10.336914 10.336914 2.5 20 2.5 C 29.663086 2.5 37.5 10.336914 37.5 20 Z M 37.5 20 " transform="matrix(0.8,0,0,0.8,0,0)"/>
</g>
</svg>
